HIERARCHY
ROOT hips
{
	OFFSET -0.003675 0.299928 -0.021708
	CHANNELS 6 Xposition Yposition Zposition Xrotation Yrotation Zrotation
	JOINT LowerBack
	{
		OFFSET 0.000919 0.177588 0.009275
		CHANNELS 3 Xrotation Yrotation Zrotation
		JOINT spine
		{
			OFFSET 0.000919 0.177588 0.009275
			CHANNELS 3 Xrotation Yrotation Zrotation
			JOINT chest
			{
				OFFSET 0.000456 0.100015 0.004638
				CHANNELS 3 Xrotation Yrotation Zrotation
				JOINT neck
				{
					OFFSET 0.000456 0.100015 0.004638
					CHANNELS 3 Xrotation Yrotation Zrotation
					JOINT head
					{
						OFFSET 0.000924 0.155147 0.009274
						CHANNELS 6 Xposition Yposition Zposition Xrotation Yrotation Zrotation
						End Site
						{
							OFFSET 0.000000 0.153400 0.000000
						}
					}
				}
				JOINT shoulder.L
				{
					OFFSET 0.019937 0.078966 0.057518
					CHANNELS 6 Xposition Yposition Zposition Yrotation Xrotation Zrotation
					JOINT upper_arm.L
					{
						OFFSET 0.177024 -0.020465 -0.095062
						CHANNELS 6 Xposition Yposition Zposition Xrotation Yrotation Zrotation
						JOINT forearm.L
						{
							OFFSET 0.247100 -0.135500 -0.061800
							CHANNELS 3 Xrotation Yrotation Zrotation
							JOINT hand.L
							{
								OFFSET 0.217000 -0.143000 0.039300
								CHANNELS 3 Xrotation Yrotation Zrotation
								JOINT palm.01.L
								{
									OFFSET 0.021770 -0.038291 0.012954
									CHANNELS 6 Xposition Yposition Zposition Yrotation Xrotation Zrotation
									JOINT f_index.01.L
									{
										OFFSET 0.053215 -0.044137 0.008236
										CHANNELS 3 Xrotation Yrotation Zrotation
										JOINT f_index.02.L
										{
											OFFSET 0.036108 -0.024723 -0.010656
											CHANNELS 3 Xrotation Yrotation Zrotation
											JOINT f_index.03.L
											{
												OFFSET 0.021342 -0.014948 -0.010846
												CHANNELS 3 Xrotation Yrotation Zrotation
												End Site
												{
													OFFSET 0.015600 -0.009860 -0.013421
												}
											}
										}
									}
									JOINT thumb.01.L
									{
										OFFSET -0.009090 -0.002348 -0.024223
										CHANNELS 6 Xposition Yposition Zposition Xrotation Yrotation Zrotation
										JOINT thumb.02.L
										{
											OFFSET 0.019713 -0.035076 -0.011120
											CHANNELS 3 Xrotation Yrotation Zrotation
											JOINT thumb.03.L
											{
												OFFSET 0.024877 -0.021748 -0.005176
												CHANNELS 3 Xrotation Yrotation Zrotation
												End Site
												{
													OFFSET 0.016125 -0.013029 -0.001569
												}
											}
										}
									}
								}
								JOINT palm.02.L
								{
									OFFSET 0.032823 -0.025104 0.012281
									CHANNELS 6 Xposition Yposition Zposition Yrotation Xrotation Zrotation
									JOINT f_middle.01.L
									{
										OFFSET 0.055723 -0.038469 0.008037
										CHANNELS 3 Xrotation Yrotation Zrotation
										JOINT f_middle.02.L
										{
											OFFSET 0.038167 -0.027473 -0.015582
											CHANNELS 3 Xrotation Yrotation Zrotation
											JOINT f_middle.03.L
											{
												OFFSET 0.021707 -0.016587 -0.017037
												CHANNELS 3 Xrotation Yrotation Zrotation
												End Site
												{
													OFFSET 0.014112 -0.010584 -0.014294
												}
											}
										}
									}
								}
								JOINT palm.03.L
								{
									OFFSET 0.039230 -0.011402 0.008390
									CHANNELS 6 Xposition Yposition Zposition Yrotation Xrotation Zrotation
									JOINT f_ring.01.L
									{
										OFFSET 0.061796 -0.031470 0.007910
										CHANNELS 3 Xrotation Yrotation Zrotation
										JOINT f_ring.02.L
										{
											OFFSET 0.033092 -0.023401 -0.019127
											CHANNELS 3 Xrotation Yrotation Zrotation
											JOINT f_ring.03.L
											{
												OFFSET 0.021392 -0.015362 -0.017824
												CHANNELS 3 Xrotation Yrotation Zrotation
												End Site
												{
													OFFSET 0.008670 -0.007297 -0.014686
												}
											}
										}
									}
								}
								JOINT palm.04.L
								{
									OFFSET 0.043417 0.002450 0.002889
									CHANNELS 6 Xposition Yposition Zposition Yrotation Xrotation Zrotation
									JOINT f_pinky.01.L
									{
										OFFSET 0.069986 -0.026156 0.003627
										CHANNELS 3 Xrotation Yrotation Zrotation
										JOINT f_pinky.02.L
										{
											OFFSET 0.018520 -0.012813 -0.016429
											CHANNELS 3 Xrotation Yrotation Zrotation
											JOINT f_pinky.03.L
											{
												OFFSET 0.013822 -0.009796 -0.014947
												CHANNELS 3 Xrotation Yrotation Zrotation
												End Site
												{
													OFFSET 0.007238 -0.006103 -0.011657
												}
											}
										}
									}
								}
							}
						}
					}
				}
				JOINT shoulder.R
				{
					OFFSET -0.016662 0.078957 0.057696
					CHANNELS 6 Xposition Yposition Zposition Yrotation Xrotation Zrotation
					JOINT upper_arm.R
					{
						OFFSET -0.176972 -0.020537 -0.095144
						CHANNELS 6 Xposition Yposition Zposition Xrotation Yrotation Zrotation
						JOINT forearm.R
						{
							OFFSET -0.247100 -0.135500 -0.061800
							CHANNELS 3 Xrotation Yrotation Zrotation
							JOINT hand.R
							{
								OFFSET -0.217000 -0.143000 0.039300
								CHANNELS 3 Xrotation Yrotation Zrotation
								JOINT palm.01.R
								{
									OFFSET -0.021773 -0.038278 0.012988
									CHANNELS 6 Xposition Yposition Zposition Yrotation Xrotation Zrotation
									JOINT f_index.01.R
									{
										OFFSET -0.053212 -0.044139 0.008249
										CHANNELS 3 Xrotation Yrotation Zrotation
										JOINT f_index.02.R
										{
											OFFSET -0.036049 -0.024835 -0.010634
											CHANNELS 3 Xrotation Yrotation Zrotation
											JOINT f_index.03.R
											{
												OFFSET -0.021371 -0.014881 -0.010866
												CHANNELS 3 Xrotation Yrotation Zrotation
												End Site
												{
													OFFSET -0.015584 -0.009883 -0.013422
												}
											}
										}
									}
									JOINT thumb.01.R
									{
										OFFSET 0.009113 -0.002381 -0.024211
										CHANNELS 6 Xposition Yposition Zposition Xrotation Yrotation Zrotation
										JOINT thumb.02.R
										{
											OFFSET -0.019694 -0.035097 -0.011088
											CHANNELS 3 Xrotation Yrotation Zrotation
											JOINT thumb.03.R
											{
												OFFSET -0.024867 -0.021762 -0.005168
												CHANNELS 3 Xrotation Yrotation Zrotation
												End Site
												{
													OFFSET -0.016120 -0.013036 -0.001565
												}
											}
										}
									}
								}
								JOINT palm.02.R
								{
									OFFSET -0.032828 -0.025095 0.012286
									CHANNELS 6 Xposition Yposition Zposition Yrotation Xrotation Zrotation
									JOINT f_middle.01.R
									{
										OFFSET -0.055721 -0.038472 0.008040
										CHANNELS 3 Xrotation Yrotation Zrotation
										JOINT f_middle.02.R
										{
											OFFSET -0.038101 -0.027593 -0.015557
											CHANNELS 3 Xrotation Yrotation Zrotation
											JOINT f_middle.03.R
											{
												OFFSET -0.021730 -0.016530 -0.017054
												CHANNELS 3 Xrotation Yrotation Zrotation
												End Site
												{
													OFFSET -0.014096 -0.010608 -0.014293
												}
											}
										}
									}
								}
								JOINT palm.03.R
								{
									OFFSET -0.039192 -0.011488 0.008390
									CHANNELS 6 Xposition Yposition Zposition Yrotation Xrotation Zrotation
									JOINT f_ring.01.R
									{
										OFFSET -0.061839 -0.031387 0.007876
										CHANNELS 3 Xrotation Yrotation Zrotation
										JOINT f_ring.02.R
										{
											OFFSET -0.033068 -0.023437 -0.019125
											CHANNELS 3 Xrotation Yrotation Zrotation
											JOINT f_ring.03.R
											{
												OFFSET -0.021371 -0.015393 -0.017822
												CHANNELS 3 Xrotation Yrotation Zrotation
												End Site
												{
													OFFSET -0.008654 -0.007321 -0.014684
												}
											}
										}
									}
								}
								JOINT palm.04.R
								{
									OFFSET -0.043421 0.002443 0.002845
									CHANNELS 6 Xposition Yposition Zposition Yrotation Xrotation Zrotation
									JOINT f_pinky.01.R
									{
										OFFSET -0.069983 -0.026169 0.003599
										CHANNELS 3 Xrotation Yrotation Zrotation
										JOINT f_pinky.02.R
										{
											OFFSET -0.018501 -0.012842 -0.016428
											CHANNELS 3 Xrotation Yrotation Zrotation
											JOINT f_pinky.03.R
											{
												OFFSET -0.013806 -0.009821 -0.014946
												CHANNELS 3 Xrotation Yrotation Zrotation
												End Site
												{
													OFFSET -0.007226 -0.006121 -0.011655
												}
											}
										}
									}
								}
							}
						}
					}
				}
			}
		}
	}
	JOINT pelvis.L
	{
		OFFSET 0.000000 0.000000 0.000000
		CHANNELS 6 Xposition Yposition Zposition Xrotation Yrotation Zrotation
		JOINT thigh.L
		{
			OFFSET 0.101675 0.001054 -0.000000
			CHANNELS 3 Xrotation Yrotation Zrotation
			JOINT shin.L
			{
				OFFSET 0.000000 -0.534800 0.041000
				CHANNELS 3 Xrotation Yrotation Zrotation
				JOINT foot.L
				{
					OFFSET 0.000000 -0.452000 -0.044800
					CHANNELS 3 Xrotation Yrotation Zrotation
					JOINT toe.L
					{
						OFFSET -0.000000 -0.068500 0.109600
						CHANNELS 3 Xrotation Yrotation Zrotation
						End Site
						{
							OFFSET -0.000000 0.000000 0.067200
						}
					}
				}
				JOINT heel.L
				{
					OFFSET 0.000000 -0.452000 -0.044800
					CHANNELS 3 Xrotation Yrotation Zrotation
					JOINT heel.02.L
					{
						OFFSET -0.038000 -0.085200 0.016200
						CHANNELS 6 Xposition Yposition Zposition Xrotation Yrotation Zrotation
						End Site
						{
							OFFSET 0.080000 -0.000000 0.000000
						}
					}
				}
			}
		}
	}
	JOINT pelvis.R
	{
		OFFSET 0.000000 0.000000 0.000000
		CHANNELS 6 Xposition Yposition Zposition Xrotation Yrotation Zrotation
		JOINT thigh.R
		{
			OFFSET -0.094325 0.001054 0.000000
			CHANNELS 3 Xrotation Yrotation Zrotation
			JOINT shin.R
			{
				OFFSET 0.000000 -0.534800 0.041000
				CHANNELS 3 Xrotation Yrotation Zrotation
				JOINT foot.R
				{
					OFFSET 0.000000 -0.452000 -0.044800
					CHANNELS 3 Xrotation Yrotation Zrotation
					JOINT toe.R
					{
						OFFSET -0.000000 -0.068500 0.109600
						CHANNELS 3 Xrotation Yrotation Zrotation
						End Site
						{
							OFFSET -0.000000 0.000000 0.067200
						}
					}
				}
				JOINT heel.R
				{
					OFFSET 0.000000 -0.452000 -0.044800
					CHANNELS 3 Xrotation Yrotation Zrotation
					JOINT heel.02.R
					{
						OFFSET 0.038000 -0.085200 0.016200
						CHANNELS 6 Xposition Yposition Zposition Xrotation Yrotation Zrotation
						End Site
						{
							OFFSET -0.080000 0.000000 -0.000000
						}
					}
				}
			}
		}
	}
}
MOTION
Frames: 4
Frame Time: 0.041667
-0.018308 0.231221 -0.012032 93.252395 47.749176 78.626679 0.000002 -0.000001 -0.000000 0.000000 -0.000000 -0.000001 0.000001 0.000000 -0.000000 -0.000001 0.000000 -0.000001 0.000924 0.155147 0.009274 -51.724784 0.210017 -28.217747 0.019937 0.078966 0.057518 18.056541 5.216055 35.145947 0.177024 -0.020465 -0.095062 -53.398402 -13.196512 -33.485296 -44.059962 -35.563265 -20.727647 0.000001 0.000001 0.000005 0.021770 -0.038291 0.012954 -0.000001 0.000006 0.000001 0.000000 -0.000001 -0.000002 -0.000000 0.000001 0.000010 -0.000000 0.000003 0.000002 -0.009090 -0.002348 -0.024223 0.000001 0.000001 -0.000000 0.000000 0.000000 -0.000000 -0.000001 -0.000003 0.000003 0.032823 -0.025104 0.012281 -0.000000 0.000005 0.000007 0.000004 0.000005 -0.000005 -0.000001 -0.000005 0.000001 -0.000000 -0.000002 -0.000000 0.039230 -0.011402 0.008390 -0.000001 -0.000000 0.000004 0.000005 0.000001 -0.000000 -0.000003 0.000005 0.000001 -0.000003 -0.000004 0.000003 0.043417 0.002450 0.002889 -0.000000 0.000006 -0.000000 0.000003 -0.000007 -0.000003 -0.000001 0.000002 0.000000 -0.000000 -0.000001 -0.000001 -0.016662 0.078956 0.057696 38.575546 6.156404 -45.030126 -0.176972 -0.020537 -0.095144 -65.832095 11.941875 34.449312 -16.038363 30.092253 -8.279429 0.000002 -0.000001 -0.000003 -0.021773 -0.038278 0.012988 0.000000 0.000001 0.000002 -0.000000 0.000000 -0.000003 -0.000001 -0.000000 -0.000001 0.000001 0.000000 0.000001 0.009114 -0.002381 -0.024211 0.000001 -0.000003 -0.000001 0.000006 -0.000003 0.000002 -0.000002 -0.000001 0.000001 -0.032828 -0.025095 0.012286 -0.000000 -0.000001 -0.000001 0.000001 0.000002 0.000004 -0.000000 -0.000002 -0.000004 -0.000003 0.000007 -0.000006 -0.039192 -0.011488 0.008390 -0.000001 0.000006 0.000002 -0.000002 0.000004 0.000000 -0.000000 -0.000001 0.000002 -0.000001 0.000004 -0.000003 -0.043421 0.002443 0.002845 -0.000001 0.000001 0.000002 -0.000002 0.000004 0.000001 -0.000001 -0.000004 -0.000002 -0.000000 -0.000000 0.000001 0.000000 0.000000 -0.000000 -2.163544 1.075300 -12.705039 -82.942546 -2.104525 -24.201233 54.139320 2.991726 -31.820759 -0.000002 -0.000001 -0.000001 -0.000002 0.000001 -0.000000 0.000005 -0.000003 0.000000 -0.038000 -0.085200 0.016200 -0.000006 -0.000001 0.000001 -0.000000 0.000000 -0.000000 -2.077673 1.056875 -11.472452 -38.076594 0.370070 1.613368 66.600478 2.646789 -27.799894 0.000002 0.000001 0.000001 0.000005 0.000002 0.000004 0.000005 0.000002 -0.000003 0.038000 -0.085200 0.016200 0.000000 0.000002 -0.000004 
-0.017933 0.229228 -0.009740 98.276798 47.878462 74.167692 0.000005 0.000001 0.000001 0.000006 0.000001 0.000001 -0.000001 -0.000000 0.000000 0.000003 -0.000000 -0.000001 0.000924 0.155147 0.009274 -50.014470 0.224305 -18.318897 0.019937 0.078966 0.057518 19.242286 4.575222 33.367134 0.177024 -0.020466 -0.095062 -53.513805 -17.185594 -31.043674 -42.786935 -41.482963 -14.870777 0.000004 0.000001 -0.000002 0.021770 -0.038291 0.012954 0.000001 0.000001 0.000001 -0.000001 0.000001 0.000001 -0.000002 0.000005 0.000005 -0.000000 -0.000002 0.000001 -0.009090 -0.002348 -0.024223 -0.000003 -0.000001 -0.000001 -0.000000 -0.000004 0.000001 -0.000003 0.000000 0.000003 0.032823 -0.025104 0.012281 -0.000002 0.000002 0.000005 -0.000001 -0.000002 -0.000000 -0.000005 -0.000003 0.000001 0.000001 -0.000005 0.000006 0.039230 -0.011402 0.008390 -0.000001 0.000002 0.000004 0.000001 0.000003 0.000003 -0.000002 0.000008 0.000006 0.000000 -0.000001 0.000004 0.043417 0.002450 0.002889 -0.000001 0.000004 -0.000002 -0.000004 -0.000005 -0.000000 -0.000002 0.000006 -0.000001 0.000004 0.000003 -0.000002 -0.016662 0.078957 0.057696 45.986267 5.238248 -39.983671 -0.176972 -0.020537 -0.095144 -59.088267 20.427240 27.771732 -10.784753 25.361812 -13.481000 0.000002 0.000004 0.000001 -0.021773 -0.038278 0.012988 0.000000 -0.000002 0.000002 -0.000000 0.000001 0.000001 -0.000002 -0.000000 -0.000003 -0.000003 -0.000002 0.000003 0.009114 -0.002381 -0.024212 0.000002 -0.000001 -0.000001 0.000002 0.000000 0.000000 0.000003 -0.000001 -0.000001 -0.032828 -0.025095 0.012286 0.000003 0.000003 0.000002 -0.000001 0.000000 0.000001 0.000002 -0.000001 0.000001 -0.000004 0.000001 -0.000004 -0.039192 -0.011488 0.008390 -0.000001 -0.000000 0.000001 -0.000002 0.000002 -0.000005 -0.000003 0.000000 0.000002 0.000002 -0.000001 -0.000000 -0.043421 0.002443 0.002845 -0.000001 0.000001 0.000004 -0.000006 0.000002 -0.000001 -0.000001 0.000001 0.000002 0.000001 -0.000005 -0.000002 0.000000 0.000000 -0.000000 -2.286442 1.400008 -15.752298 -81.070343 -2.313289 -27.190925 45.746954 2.738126 -28.848451 0.000003 -0.000001 -0.000001 0.000003 -0.000000 -0.000002 0.000000 -0.000002 -0.000001 -0.038000 -0.085200 0.016200 -0.000003 -0.000000 -0.000001 -0.000000 0.000000 -0.000000 -2.184166 1.372296 -14.520589 -36.707008 0.246748 0.060487 61.073892 2.503510 -26.174455 0.000003 -0.000004 0.000001 0.000000 0.000000 -0.000001 0.000003 0.000000 -0.000001 0.038000 -0.085200 0.016200 0.000000 -0.000002 -0.000001 
-0.012090 0.227300 -0.046507 4.045623 3.459091 96.232939 -0.000001 0.000000 -0.000001 -0.000000 -0.000000 0.000000 0.000000 -0.000000 -0.000001 -0.000000 -0.000001 -0.000000 0.000924 0.155148 0.009274 34.840904 -0.071824 -30.993561 0.019937 0.078966 0.057518 1.015109 -0.180224 27.192095 0.177025 -0.020465 -0.095062 38.349350 19.066659 -65.540781 -52.655612 -15.654623 -44.609594 -0.000002 0.000000 -0.000001 0.021770 -0.038291 0.012954 -0.000002 0.000004 0.000001 -0.000005 -0.000001 -0.000000 -0.000003 -0.000003 0.000007 -0.000000 0.000005 -0.000001 -0.009090 -0.002348 -0.024223 0.000003 -0.000002 -0.000001 0.000001 -0.000000 -0.000002 -0.000001 0.000000 0.000001 0.032823 -0.025104 0.012281 0.000000 -0.000003 0.000004 -0.000001 0.000003 -0.000003 -0.000003 -0.000001 0.000003 -0.000001 0.000001 -0.000001 0.039230 -0.011402 0.008390 0.000001 0.000001 0.000003 0.000003 0.000000 -0.000000 -0.000000 0.000010 -0.000002 -0.000000 -0.000006 0.000003 0.043417 0.002450 0.002889 -0.000000 0.000001 -0.000002 -0.000005 -0.000006 -0.000004 -0.000001 0.000003 0.000001 -0.000002 0.000002 -0.000003 -0.016662 0.078956 0.057696 -19.219059 4.737294 -30.594275 -0.176972 -0.020537 -0.095144 20.977172 -20.961053 48.147684 -2.765137 4.680765 5.251591 0.000002 0.000001 0.000004 -0.021773 -0.038278 0.012988 0.000001 0.000002 -0.000007 -0.000001 0.000001 0.000001 0.000004 -0.000000 -0.000003 -0.000000 0.000000 0.000001 0.009114 -0.002381 -0.024212 0.000001 -0.000002 -0.000001 -0.000002 -0.000003 0.000000 0.000003 0.000004 -0.000003 -0.032828 -0.025095 0.012286 0.000001 0.000001 -0.000004 -0.000003 0.000000 0.000004 -0.000001 0.000002 -0.000007 -0.000003 0.000007 -0.000002 -0.039192 -0.011488 0.008390 0.000001 0.000004 -0.000000 0.000001 0.000002 0.000000 -0.000002 0.000001 -0.000000 0.000001 0.000000 -0.000001 -0.043421 0.002443 0.002845 0.000003 0.000005 -0.000001 0.000000 0.000006 0.000001 -0.000002 -0.000006 0.000002 -0.000001 0.000000 0.000002 0.000000 0.000000 -0.000000 -2.150483 0.382647 -5.210622 -86.691855 -0.388788 -0.953785 132.062418 0.524854 -5.300702 -0.000003 0.000000 0.000000 -0.000001 -0.000000 -0.000000 -0.000005 0.000000 0.000000 -0.038000 -0.085200 0.016200 -0.000001 -0.000000 -0.000000 0.000000 0.000000 -0.000000 -2.090668 0.377818 -3.976835 -87.118168 1.450932 14.217593 120.754671 -0.162748 1.645194 0.000005 -0.000000 -0.000000 0.000003 0.000001 -0.000000 0.000007 0.000001 0.000000 0.038000 -0.085200 0.016200 0.000000 0.000001 -0.000001 
-0.016556 0.229106 -0.008670 102.294206 47.234248 70.457882 -0.000001 -0.000000 -0.000000 0.000003 0.000002 0.000001 0.000002 -0.000001 -0.000000 -0.000002 -0.000001 -0.000000 0.000924 0.155147 0.009274 -52.059162 0.243328 -14.137565 0.019937 0.078966 0.057518 18.052649 4.282442 33.936946 0.177024 -0.020465 -0.095062 -60.876151 -11.648227 -36.890272 -35.174822 -30.722123 -17.182239 -0.000002 -0.000004 0.000000 0.021770 -0.038291 0.012954 0.000001 -0.000004 -0.000002 0.000001 0.000000 -0.000002 0.000001 0.000003 0.000005 -0.000000 0.000007 0.000001 -0.009090 -0.002348 -0.024223 0.000002 -0.000004 -0.000002 0.000000 0.000000 -0.000000 -0.000003 -0.000004 -0.000002 0.032823 -0.025104 0.012281 -0.000001 0.000002 0.000005 -0.000002 0.000004 -0.000003 -0.000005 -0.000002 0.000003 0.000002 0.000007 -0.000003 0.039230 -0.011402 0.008390 0.000003 -0.000000 0.000004 0.000001 -0.000001 -0.000000 0.000002 0.000004 -0.000002 0.000004 0.000001 0.000001 0.043417 0.002450 0.002889 0.000001 0.000004 -0.000002 0.000002 -0.000003 -0.000002 -0.000002 -0.000003 0.000001 0.000003 0.000002 -0.000003 -0.016662 0.078957 0.057696 48.165548 5.066896 -38.619577 -0.176972 -0.020537 -0.095144 -63.481957 16.603418 30.700611 -9.443840 19.256709 -9.851631 0.000001 0.000001 -0.000005 -0.021773 -0.038278 0.012988 0.000001 -0.000000 0.000000 0.000001 0.000003 -0.000004 -0.000001 -0.000004 -0.000003 -0.000001 0.000006 0.000005 0.009114 -0.002381 -0.024212 0.000001 -0.000001 -0.000003 -0.000004 0.000000 -0.000001 0.000002 -0.000002 0.000001 -0.032828 -0.025095 0.012286 0.000000 0.000004 -0.000003 0.000004 0.000001 -0.000003 -0.000001 0.000005 -0.000000 -0.000003 0.000005 -0.000006 -0.039192 -0.011488 0.008390 0.000001 -0.000000 -0.000000 -0.000004 0.000003 -0.000005 0.000006 -0.000002 -0.000000 -0.000006 0.000003 -0.000000 -0.043421 0.002443 0.002845 0.000000 0.000001 0.000005 0.000001 0.000005 -0.000001 0.000001 -0.000003 -0.000003 -0.000001 -0.000001 -0.000001 0.000000 0.000000 -0.000000 -2.311624 1.567958 -17.356341 -77.462985 -2.481343 -29.707641 36.609233 2.693783 -28.337768 0.000000 -0.000001 0.000000 0.000001 -0.000000 0.000002 0.000000 0.000000 0.000001 -0.038000 -0.085200 0.016200 0.000001 -0.000000 0.000000 -0.000000 0.000000 -0.000000 -2.201802 1.534895 -16.125137 -33.138148 0.161319 -0.832924 56.326890 2.676448 -28.139814 -0.000005 0.000004 -0.000001 0.000002 0.000000 0.000001 0.000005 0.000002 0.000001 0.038000 -0.085200 0.016200 0.000002 -0.000004 0.000001 
